<?xml version="1.0" encoding="UTF-8" standalone="no"?>
<svg
   xmlns:dc="http://purl.org/dc/elements/1.1/"
   xmlns:cc="http://creativecommons.org/ns#"
   xmlns:rdf="http://www.w3.org/1999/02/22-rdf-syntax-ns#"
   xmlns:svg="http://www.w3.org/2000/svg"
   xmlns="http://www.w3.org/2000/svg"
   xmlns:sodipodi="http://sodipodi.sourceforge.net/DTD/sodipodi-0.dtd"
   xmlns:inkscape="http://www.inkscape.org/namespaces/inkscape"
   id="Layer_1"
   data-name="Layer 1"
   viewBox="0 0 522 589"
   version="1.1"
   sodipodi:docname="white-logo.svg"
   inkscape:version="0.92.2 5c3e80d, 2017-08-06">
  <metadata
     id="metadata360">
    <rdf:RDF>
      <cc:Work
         rdf:about="">
        <dc:format>image/svg+xml</dc:format>
        <dc:type
           rdf:resource="http://purl.org/dc/dcmitype/StillImage" />
        <dc:title>whi</dc:title>
      </cc:Work>
    </rdf:RDF>
  </metadata>
  <sodipodi:namedview
     pagecolor="#ffffff"
     bordercolor="#666666"
     borderopacity="1"
     objecttolerance="10"
     gridtolerance="10"
     guidetolerance="10"
     inkscape:pageopacity="0"
     inkscape:pageshadow="2"
     inkscape:window-width="1920"
     inkscape:window-height="1055"
     id="namedview358"
     showgrid="false"
     inkscape:pagecheckerboard="true"
     inkscape:zoom="1.1332917"
     inkscape:cx="399.51941"
     inkscape:cy="312.09785"
     inkscape:window-x="0"
     inkscape:window-y="25"
     inkscape:window-maximized="1"
     inkscape:current-layer="Layer_1" />
  <defs
     id="defs13">
    <style
       id="style2">.cls-1{fill:#fff;}.cls-2{fill:gray;}.cls-3{mask:url(#mask);}</style>
    <mask
       id="mask"
       x="49"
       y="255"
       width="293"
       height="302"
       maskUnits="userSpaceOnUse">
      <g
         transform="translate(-254 -202)"
         id="g10">
        <polygon
           class="cls-1"
           points="589 460 303 457 305 550 499 552 499 748 596 748 589 460"
           id="polygon4" />
        <polygon
           class="cls-2"
           points="310 547 305 547 305 759 508 759 508 744 310 744 310 547"
           id="polygon6" />
        <polygon
           points="358.9 464.44 408.87 558 468.41 457 354 457 358.9 464.44"
           id="polygon8" />
      </g>
    </mask>
  </defs>
  <title
     id="title15">whi</title>
  <path
     id="rect355"
     style="fill:#ffffff"
     d="m 204,205 h 256 c 4.432,0 8,3.568 8,8 0,4.432 -3.568,8 -8,8 H 204 c -4.432,0 -8,-3.568 -8,-8 0,-4.432 3.568,-8 8,-8 z m 0,-30 h 256 c 4.432,0 8,3.568 8,8 0,4.432 -3.568,8 -8,8 H 204 c -4.432,0 -8,-3.568 -8,-8 0,-4.432 3.568,-8 8,-8 z m 0,-30 h 256 c 4.432,0 8,3.568 8,8 0,4.432 -3.568,8 -8,8 H 204 c -4.432,0 -8,-3.568 -8,-8 0,-4.432 3.568,-8 8,-8 z m 0,-30 h 256 c 4.432,0 8,3.568 8,8 0,4.432 -3.568,8 -8,8 H 204 c -4.432,0 -8,-3.568 -8,-8 0,-4.432 3.568,-8 8,-8 z m 0,-30 h 256 c 4.432,0 8,3.568 8,8 0,4.432 -3.568,8 -8,8 H 204 c -4.432,0 -8,-3.568 -8,-8 0,-4.432 3.568,-8 8,-8 z m 0,-30 h 256 c 4.432,0 8,3.568 8,8 0,4.432 -3.568,8 -8,8 H 204 c -4.432,0 -8,-3.568 -8,-8 0,-4.432 3.568,-8 8,-8 z m 119.19,452.9 c 1.3,0.18 1.46,0.95 1.52,2.27 0,0.13 0,0.06 0,0.19 v 26.34 c 0,0.91 0.26,1.39 0.76,1.52 h 6.31 a 1.35,1.35 0 0 1 1,0.4 1.86,1.86 0 0 1 0,3 1.35,1.35 0 0 1 -0.92,0.36 h -17.99 a 1.33,1.33 0 0 1 -1,-0.41 c -0.73,-0.77 -1.08,-3.38 2,-3.38 h 5.3 c 0.65,-0.1 0.89,-1.38 0.76,-2.27 v -22.15 a 1.32,1.32 0 0 0 -1.32,-1.32 h -4.74 c -3.79,0 -3,-4.55 -0.31,-4.37 M 294.4,507.9 c 1.3,0.18 1.46,0.95 1.52,2.27 0,0.13 0,0.06 0,0.19 v 26.34 c 0,0.91 0.26,1.39 0.76,1.52 H 303 a 1.35,1.35 0 0 1 1,0.4 1.86,1.86 0 0 1 0,3 1.35,1.35 0 0 1 -0.92,0.36 h -18.01 a 1.33,1.33 0 0 1 -1,-0.41 c -0.73,-0.77 -1.08,-3.38 2,-3.38 h 5.3 c 0.65,-0.1 0.89,-1.38 0.76,-2.27 v -22.15 a 1.32,1.32 0 0 0 -1.32,-1.32 h -4.74 c -3.79,0 -3,-4.55 -0.31,-4.37 m -14.18,-0.18 h -15.73 a 2.05,2.05 0 0 0 -2,2 v 30 a 2.05,2.05 0 0 0 2,2 h 15.73 a 2.05,2.05 0 0 0 2,-2 V 510 a 2.05,2.05 0 0 0 -2,-2.1 z m -1.12,28.88 a 2.05,2.05 0 0 1 -2,2 H 259 a 2.05,2.05 0 0 1 -2,-2 v -23.66 a 2.05,2.05 0 0 1 2,-2 h 9.38 a 2.05,2.05 0 0 1 2,2 z m 52.73,-78.13 c 1.3,0.18 1.46,0.95 1.52,2.27 0,0.13 0,0.06 0,0.19 v 26.33 c 0,0.91 0.26,1.39 0.76,1.52 h 6.31 a 1.35,1.35 0 0 1 1,0.4 1.86,1.86 0 0 1 0,3 1.35,1.35 0 0 1 -0.92,0.36 h -17.99 a 1.33,1.33 0 0 1 -1,-0.41 c -0.73,-0.77 -1.08,-3.38 2,-3.38 h 5.3 c 0.65,-0.1 0.89,-1.38 0.76,-2.27 v -22.14 a 1.32,1.32 0 0 0 -1.32,-1.32 h -4.74 c -3.79,0 -3,-4.55 -0.31,-4.37 m -20.16,-0.18 c 1.3,0.18 1.46,0.95 1.52,2.27 0,0.13 0,0.06 0,0.19 v 26.33 c 0,0.91 0.26,1.39 0.76,1.52 H 303 a 1.35,1.35 0 0 1 1,0.4 1.86,1.86 0 0 1 0,3 1.35,1.35 0 0 1 -0.92,0.36 h -18.01 a 1.33,1.33 0 0 1 -1,-0.41 c -0.73,-0.77 -1.08,-3.38 2,-3.38 h 5.3 c 0.65,-0.1 0.89,-1.38 0.76,-2.27 v -22.14 a 1.32,1.32 0 0 0 -1.32,-1.32 h -4.74 c -3.79,0 -3,-4.55 -0.31,-4.37 m -23.52,-0.18 c 1.3,0.18 1.46,0.95 1.52,2.27 0,0.13 0,0.06 0,0.19 v 26.33 c 0,0.91 0.26,1.39 0.76,1.52 h 6.31 a 1.35,1.35 0 0 1 1,0.4 1.86,1.86 0 0 1 0,3 1.35,1.35 0 0 1 -0.92,0.36 h -18 a 1.33,1.33 0 0 1 -1,-0.41 c -0.73,-0.77 -1.08,-3.38 2,-3.38 h 5.3 c 0.65,-0.1 0.89,-1.38 0.76,-2.27 v -22.14 a 1.32,1.32 0 0 0 -1.32,-1.32 h -4.75 c -3.79,0 -3,-4.55 -0.31,-4.37 M 319.4,409.4 c 1.3,0.18 1.46,0.95 1.52,2.27 0,0.13 0,0.06 0,0.19 v 26.33 c 0,0.91 0.26,1.39 0.76,1.52 H 328 a 1.35,1.35 0 0 1 1,0.4 1.86,1.86 0 0 1 0,3 1.35,1.35 0 0 1 -0.92,0.36 h -18 a 1.33,1.33 0 0 1 -1,-0.41 c -0.73,-0.77 -1.08,-3.38 2,-3.38 h 5.3 c 0.65,-0.1 0.89,-1.38 0.76,-2.27 v -22.15 a 1.32,1.32 0 0 0 -1.32,-1.32 h -4.74 c -3.79,0 -3,-4.55 -0.31,-4.37 m -49.16,-0.17 c 1.3,0.18 1.46,0.95 1.52,2.27 0,0.13 0,0.06 0,0.19 v 26.33 c 0,0.91 0.26,1.39 0.76,1.52 h 6.31 a 1.35,1.35 0 0 1 1,0.4 1.86,1.86 0 0 1 0,3 1.35,1.35 0 0 1 -0.92,0.36 h -17.99 a 1.33,1.33 0 0 1 -1,-0.41 c -0.73,-0.77 -1.08,-3.38 2,-3.38 h 5.3 c 0.65,-0.1 0.89,-1.38 0.76,-2.27 v -22.15 a 1.32,1.32 0 0 0 -1.32,-1.32 h -4.74 c -3.79,0 -3,-4.55 -0.31,-4.37 m 44.81,-0.17 h -15.73 a 2.05,2.05 0 0 0 -2,2 v 30 a 2.05,2.05 0 0 0 2,2 h 15.73 a 2.05,2.05 0 0 0 2,-2 v -30 a 2.05,2.05 0 0 0 -2,-2 z m -1.12,28.88 a 2.05,2.05 0 0 1 -2,2 h -9.38 a 2.05,2.05 0 0 1 -2,-2 v -23.66 a 2.05,2.05 0 0 1 2,-2 h 9.38 a 2.05,2.05 0 0 1 2,2 z m 22.73,-78.13 c 1.3,0.18 1.46,0.95 1.52,2.27 0,0.13 0,0.06 0,0.19 v 26.33 c 0,0.91 0.26,1.39 0.76,1.52 H 328 a 1.35,1.35 0 0 1 1,0.4 1.86,1.86 0 0 1 0,3 1.35,1.35 0 0 1 -0.92,0.36 h -18 a 1.33,1.33 0 0 1 -1,-0.41 c -0.73,-0.77 -1.08,-3.38 2,-3.38 h 5.3 c 0.65,-0.1 0.89,-1.38 0.76,-2.27 V 366 a 1.32,1.32 0 0 0 -1.32,-1.32 h -4.74 c -3.79,0 -3,-4.55 -0.31,-4.37 m -52.16,-0.16 c 1.3,0.18 1.46,0.95 1.52,2.27 0,0.13 0,0.06 0,0.19 v 26.33 c 0,0.91 0.26,1.39 0.76,1.52 h 6.31 a 1.35,1.35 0 0 1 1,0.4 1.86,1.86 0 0 1 0,3 1.35,1.35 0 0 1 -0.92,0.36 h -17.99 a 1.33,1.33 0 0 1 -1,-0.41 c -0.73,-0.77 -1.08,-3.38 2,-3.38 h 5.3 c 0.65,-0.1 0.89,-1.38 0.76,-2.27 V 366 a 1.32,1.32 0 0 0 -1.32,-1.32 h -4.74 c -3.79,0 -3,-4.55 -0.31,-4.37 m 44.81,-0.16 h -15.73 a 2.05,2.05 0 0 0 -2,2 v 30 a 2.05,2.05 0 0 0 2,2 h 15.73 a 2.05,2.05 0 0 0 2,-2 v -30 a 2.05,2.05 0 0 0 -2,-2 z M 293.66,389 a 2.05,2.05 0 0 1 -2,2 h -9.38 a 2.05,2.05 0 0 1 -2,-2 v -23.63 a 2.05,2.05 0 0 1 2,-2 h 9.38 a 2.05,2.05 0 0 1 2,2 z m 21.96,-78.11 c 1.3,0.18 1.46,0.95 1.52,2.27 0,0.13 0,0.06 0,0.19 v 26.33 c 0,0.91 0.26,1.39 0.76,1.52 h 6.31 a 1.35,1.35 0 0 1 1,0.4 1.86,1.86 0 0 1 0,3 1.35,1.35 0 0 1 -0.92,0.36 h -18 a 1.33,1.33 0 0 1 -1,-0.41 c -0.73,-0.77 -1.08,-3.38 2,-3.38 h 5.3 c 0.65,-0.1 0.89,-1.38 0.76,-2.27 v -22.14 a 1.32,1.32 0 0 0 -1.32,-1.32 h -4.74 c -3.79,0 -3,-4.55 -0.31,-4.37 m -20.16,-0.18 c 1.3,0.18 1.46,0.95 1.52,2.27 0,0.13 0,0.06 0,0.19 v 26.33 c 0,0.91 0.26,1.39 0.76,1.52 h 6.31 a 1.35,1.35 0 0 1 1,0.4 1.86,1.86 0 0 1 0,3 1.35,1.35 0 0 1 -0.92,0.36 H 277.5 a 1.33,1.33 0 0 1 -1,-0.41 c -0.73,-0.77 -1.08,-3.38 2,-3.38 h 5.3 c 0.65,-0.1 0.89,-1.38 0.76,-2.27 v -22.14 a 1.32,1.32 0 0 0 -1.32,-1.32 h -4.74 c -3.79,0 -3,-4.55 -0.31,-4.37 M 264,310.89 h -15.73 a 2.05,2.05 0 0 0 -2,2 v 30 a 2.05,2.05 0 0 0 2,2 H 264 a 2.05,2.05 0 0 0 2,-2 v -30 a 2.05,2.05 0 0 0 -2,-2 z m -1.12,28.88 a 2.05,2.05 0 0 1 -2,2 h -9.38 a 2.05,2.05 0 0 1 -2,-2 v -23.66 a 2.05,2.05 0 0 1 2,-2 h 9.38 a 2.05,2.05 0 0 1 2,2 z m -31.46,-28.88 h -15.73 a 2.05,2.05 0 0 0 -2,2 v 30 a 2.05,2.05 0 0 0 2,2 h 15.73 a 2.05,2.05 0 0 0 2,-2 v -30 a 2.05,2.05 0 0 0 -2,-2 z m -1.12,28.88 a 2.05,2.05 0 0 1 -2,2 h -9.38 a 2.05,2.05 0 0 1 -2,-2 v -23.66 a 2.05,2.05 0 0 1 2,-2 h 9.38 a 2.05,2.05 0 0 1 2,2 z m -38.19,-28.88 c 1.3,0.18 1.46,0.95 1.52,2.27 0,0.13 0,0.06 0,0.19 v 26.33 c 0,0.91 0.26,1.39 0.76,1.52 h 6.31 a 1.35,1.35 0 0 1 1,0.4 1.86,1.86 0 0 1 0,3 1.35,1.35 0 0 1 -0.92,0.36 h -18 a 1.33,1.33 0 0 1 -1,-0.41 c -0.73,-0.77 -1.08,-3.38 2,-3.38 h 5.3 c 0.65,-0.1 0.89,-1.38 0.76,-2.27 v -22.14 a 1.32,1.32 0 0 0 -1.32,-1.32 h -4.74 c -3.79,0 -3,-4.55 -0.31,-4.37 m -45.25,-0.18 h -15.73 a 2.05,2.05 0 0 0 -2,2 v 30 a 2.05,2.05 0 0 0 2,2 h 15.73 a 2.05,2.05 0 0 0 2,-2 v -30 a 2.05,2.05 0 0 0 -2,-2 z m -1.12,28.88 a 2.05,2.05 0 0 1 -2,2 h -9.38 a 2.05,2.05 0 0 1 -2,-2 v -23.66 a 2.05,2.05 0 0 1 2,-2 H 135 a 2.05,2.05 0 0 1 2,2 z M 105.63,310.89 H 89.91 a 2.05,2.05 0 0 0 -2,2 v 30 a 2.05,2.05 0 0 0 2,2 h 15.73 a 2.05,2.05 0 0 0 2,-2 v -30 a 2.05,2.05 0 0 0 -2.01,-2 z m -1.12,28.88 a 2.05,2.05 0 0 1 -2,2 h -9.38 a 2.05,2.05 0 0 1 -2,-2 v -23.66 a 2.05,2.05 0 0 1 2,-2 h 9.38 a 2.05,2.05 0 0 1 2,2 z M 66.32,310.89 c 1.3,0.18 1.46,0.95 1.52,2.27 0,0.13 0,0.06 0,0.19 v 26.33 c 0,0.91 0.26,1.39 0.76,1.52 h 6.31 a 1.35,1.35 0 0 1 1,0.4 1.86,1.86 0 0 1 0,3 1.35,1.35 0 0 1 -0.92,0.36 H 57 a 1.33,1.33 0 0 1 -1,-0.41 c -0.73,-0.77 -1.08,-3.38 2,-3.38 h 5.3 c 0.65,-0.1 0.89,-1.38 0.76,-2.27 v -22.14 a 1.32,1.32 0 0 0 -1.32,-1.32 H 58 c -3.79,0 -3,-4.55 -0.31,-4.37 m 199.68,-49.43 c 1.3,0.18 1.46,0.95 1.52,2.27 0,0.13 0,0.06 0,0.19 v 26.33 c 0,0.91 0.26,1.39 0.76,1.52 H 266 a 1.35,1.35 0 0 1 1,0.4 1.86,1.86 0 0 1 0,3 1.35,1.35 0 0 1 -0.92,0.36 H 248 a 1.33,1.33 0 0 1 -1,-0.41 c -0.73,-0.77 -1.08,-3.38 2,-3.38 h 5.3 c 0.65,-0.1 0.89,-1.38 0.76,-2.27 v -22.14 a 1.32,1.32 0 0 0 -1.32,-1.32 H 249 c -3.79,0 -3,-4.55 -0.31,-4.37 m 38.89,-0.18 c 1.3,0.18 1.46,0.95 1.52,2.27 0,0.13 0,0.06 0,0.19 v 26.33 c 0,0.91 0.26,1.39 0.76,1.52 h 6.31 a 1.35,1.35 0 0 1 1,0.4 1.86,1.86 0 0 1 0,3 1.35,1.35 0 0 1 -0.92,0.36 h -18 a 1.33,1.33 0 0 1 -1,-0.41 c -0.73,-0.77 -1.08,-3.38 2,-3.38 h 5.3 c 0.65,-0.1 0.89,-1.38 0.76,-2.27 v -22.14 a 1.32,1.32 0 0 0 -1.32,-1.32 h -4.74 c -3.79,0 -3,-4.55 -0.31,-4.37 m 43.82,-0.18 H 307 a 2.05,2.05 0 0 0 -2,2 v 30 a 2.05,2.05 0 0 0 2,2 h 15.73 a 2.05,2.05 0 0 0 2,-2 v -30 a 2.05,2.05 0 0 0 -1.97,-2 z m -1.12,28.88 a 2.05,2.05 0 0 1 -2,2 h -9.44 a 2.05,2.05 0 0 1 -2,-2 v -23.66 a 2.05,2.05 0 0 1 2,-2 h 9.38 a 2.05,2.05 0 0 1 2,2 z m -89.47,-28.88 h -15.72 a 2.05,2.05 0 0 0 -2,2 v 30 a 2.05,2.05 0 0 0 2,2 h 15.73 a 2.05,2.05 0 0 0 2,-2 v -30 a 2.05,2.05 0 0 0 -2.01,-2 z M 231,290.52 a 2.05,2.05 0 0 1 -2,2 h -9.38 a 2.05,2.05 0 0 1 -2,-2 v -23.66 a 2.05,2.05 0 0 1 2,-2 H 229 a 2.05,2.05 0 0 1 2,2 z M 106.39,261.64 H 90.66 a 2.05,2.05 0 0 0 -2,2 v 30 a 2.05,2.05 0 0 0 2,2 h 15.73 a 2.05,2.05 0 0 0 2,-2 v -30 a 2.05,2.05 0 0 0 -2,-2 z m -1.12,28.88 a 2.05,2.05 0 0 1 -2,2 h -9.38 a 2.05,2.05 0 0 1 -2,-2 v -23.66 a 2.05,2.05 0 0 1 2,-2 h 9.38 a 2.05,2.05 0 0 1 2,2 z M 67.08,261.64 c 1.3,0.18 1.46,0.95 1.52,2.27 0,0.13 0,0.06 0,0.19 v 26.33 c 0,0.91 0.26,1.39 0.76,1.52 h 6.31 a 1.35,1.35 0 0 1 1,0.4 1.86,1.86 0 0 1 0,3 1.35,1.35 0 0 1 -0.92,0.36 H 57.76 a 1.33,1.33 0 0 1 -1,-0.41 c -0.73,-0.77 -1.08,-3.38 2,-3.38 h 5.3 c 0.65,-0.1 0.89,-1.38 0.76,-2.27 v -22.14 a 1.32,1.32 0 0 0 -1.32,-1.32 h -4.74 c -3.79,0 -3,-4.55 -0.31,-4.37 M 223.62,507.85999 H 232 v 8.38 h -8.38 z m 0,-8.37998 H 232 v 8.38 h -8.38 z m 0,-8.38 H 232 v 8.38 h -8.38 z m 0,-8.39002 H 232 v 8.38 h -8.38 z m 0,-16.75998 H 232 v 8.38 h -8.38 z m 0,-8.38 H 232 v 8.38 h -8.38 z m 0,-8.38001 H 232 v 8.38 h -8.38 z m 0,-8.38 H 232 v 8.38 h -8.38 z m 0,-8.38001 H 232 v 8.38 h -8.38 z m 0,-25.13998 H 232 v 8.38 h -8.38 z m 0,-8.39002 H 232 v 8.38 h -8.38 z m 0,-8.38 H 232 v 8.38 h -8.38 z m 0,-8.37998 H 232 v 8.38 h -8.38 z m 0,-8.38 H 232 v 8.38 h -8.38 z m 0,-8.38001 H 232 v 8.38 h -8.38 z m 0,-8.38 H 232 v 8.38 h -8.38 z m -8.37999,167.62 h 8.38 V 533 h -8.38 z m 0,-25.13999 h 8.38 v 8.38 h -8.38 z m 0,-25.15002 h 8.38 v 8.38 h -8.38 z m 0,-8.37998 h 8.38 v 8.38 h -8.38 z m 0,-8.38 h 8.38 v 8.38 h -8.38 z m 0,-8.38001 h 8.38 v 8.38 h -8.38 z m 0,-16.76001 h 8.38 v 8.38 h -8.38 z m 0,-25.13998 h 8.38 v 8.38 h -8.38 z m 0,-50.29001 h 8.38 v 8.38 h -8.38 z M 206.86,432.42999 h 8.38 v 8.38 h -8.38 z m 0,-25.13998 h 8.38 v 8.38 h -8.38 z m 0,-16.77002 h 8.38 v 8.38 h -8.38 z m 0,-8.37998 h 8.38 v 8.38 h -8.38 z m 0,-8.38 h 8.38 v 8.38 h -8.38 z M 206.86,357 h 8.38 v 8.38 h -8.38 z m -8.38,167.62 h 8.38 V 533 h -8.38 z m 0,-16.76001 h 8.38 v 8.38 h -8.38 z m 0,-33.53 h 8.38 v 8.38 h -8.38 z m 0,-8.37998 h 8.38 v 8.38 h -8.38 z m 0,-8.38 h 8.38 v 8.38 h -8.38 z m 0,-8.38001 h 8.38 v 8.38 h -8.38 z m 0,-8.38 h 8.38 v 8.38 h -8.38 z m 0,-33.51999 h 8.38 v 8.38 h -8.38 z m 0,-16.77002 h 8.38 v 8.38 h -8.38 z m 0,-8.37998 h 8.38 v 8.38 h -8.38 z m 0,-8.38 h 8.38 v 8.38 h -8.38 z M 198.48,357 h 8.38 v 8.38 h -8.38 z m -8.37999,159.23999 h 8.38 v 8.38 h -8.38 z m 0,-8.38 h 8.38 v 8.38 h -8.38 z m 0,-8.37998 h 8.38 v 8.38 h -8.38 z m 0,-25.15002 h 8.38 v 8.38 h -8.38 z m 0,-16.75998 h 8.38 v 8.38 h -8.38 z m 0,-50.28 h 8.38 v 8.38 h -8.38 z m 0,-16.77002 h 8.38 v 8.38 h -8.38 z m 0,-8.37998 h 8.38 v 8.38 h -8.38 z m 0,-8.38 h 8.38 v 8.38 h -8.38 z m 0,-16.76001 h 8.38 v 8.38 h -8.38 z m -8.39,150.85999 h 8.38 v 8.38 h -8.38 z m 0,-8.37998 h 8.38 v 8.38 h -8.38 z m 0,-8.38 h 8.38 v 8.38 h -8.38 z m 0,-8.39002 h 8.38 v 8.38 h -8.38 z m 0,-8.38 h 8.38 v 8.38 h -8.38 z m 0,-8.37998 h 8.38 v 8.38 h -8.38 z m 0,-33.52002 h 8.38 v 8.38 h -8.38 z m 0,-8.38 h 8.38 v 8.38 h -8.38 z m 0,-16.75998 h 8.38 v 8.38 h -8.38 z m 0,-50.29001 h 8.38 v 8.38 h -8.38 z M 173.33,516.23999 h 8.38 v 8.38 h -8.38 z m 0,-25.13998 h 8.38 v 8.38 h -8.38 z m 0,-33.53 h 8.38 v 8.38 h -8.38 z m 0,-25.14002 h 8.38 v 8.38 h -8.38 z m 0,-25.13998 h 8.38 v 8.38 h -8.38 z m 0,-8.39002 h 8.38 v 8.38 h -8.38 z m 0,-8.38 h 8.38 v 8.38 h -8.38 z m 0,-8.37998 h 8.38 v 8.38 h -8.38 z m 0,-8.38 h 8.38 v 8.38 h -8.38 z m 0,-8.38001 h 8.38 v 8.38 h -8.38 z m 0,-8.38 h 8.38 v 8.38 h -8.38 z m -8.38,159.23999 h 8.38 v 8.38 h -8.38 z m 0,-33.53 h 8.38 v 8.38 h -8.38 z m 0,-8.38 h 8.38 v 8.38 h -8.38 z m 0,-33.51999 h 8.38 v 8.38 h -8.38 z m 0,-16.76001 h 8.38 v 8.38 h -8.38 z M 156.57001,524.62 h 8.38 V 533 h -8.38 z m 0,-16.76001 h 8.38 v 8.38 h -8.38 z m 0,-25.15 h 8.38 v 8.38 h -8.38 z m 0,-25.13998 h 8.38 v 8.38 h -8.38 z m 0,-16.76001 h 8.38 v 8.38 h -8.38 z m 0,-25.13999 h 8.38 v 8.38 h -8.38 z m 0,-8.38 h 8.38 v 8.38 h -8.38 z m 0,-8.39002 h 8.38 v 8.38 h -8.38 z m 0,-8.38 h 8.38 v 8.38 h -8.38 z m 0,-16.75998 h 8.38 v 8.38 h -8.38 z m 0,-8.38001 h 8.38 v 8.38 h -8.38 z m 0,-8.38 h 8.38 v 8.38 h -8.38 z M 148.19,524.62 h 8.38 V 533 h -8.38 z m 0,-25.13999 h 8.38 v 8.38 h -8.38 z m 0,-8.38 h 8.38 v 8.38 h -8.38 z m 0,-8.39002 h 8.38 v 8.38 h -8.38 z m 0,-16.75998 h 8.38 v 8.38 h -8.38 z m 0,-16.76001 h 8.38 v 8.38 h -8.38 z m 0,-33.51999 h 8.38 v 8.38 h -8.38 z m 0,-16.77002 h 8.38 v 8.38 h -8.38 z m 0,-16.75998 h 8.38 v 8.38 h -8.38 z m 0,-16.76001 h 8.38 v 8.38 h -8.38 z m 0,-8.38 h 8.38 v 8.38 h -8.38 z m -8.38,167.62 h 8.38 V 533 h -8.38 z m 0,-16.76001 h 8.38 v 8.38 h -8.38 z m 0,-8.37998 h 8.38 v 8.38 h -8.38 z m 0,-33.53 h 8.38 v 8.38 h -8.38 z m 0,-33.52002 h 8.38 v 8.38 h -8.38 z m 0,-8.38 h 8.38 v 8.38 h -8.38 z m 0,-16.75998 h 8.38 v 8.38 h -8.38 z m 0,-25.15 h 8.38 v 8.38 h -8.38 z M 139.81,357 h 8.38 v 8.38 h -8.38 z m -8.38001,159.23999 h 8.38 v 8.38 h -8.38 z m 0,-8.38 h 8.38 v 8.38 h -8.38 z m 0,-16.75998 h 8.38 v 8.38 h -8.38 z m 0,-25.15 h 8.38 v 8.38 h -8.38 z m 0,-8.38 h 8.38 v 8.38 h -8.38 z m 0,-16.76001 h 8.38 v 8.38 h -8.38 z m 0,-25.13999 h 8.38 v 8.38 h -8.38 z m 0,-16.77002 h 8.38 v 8.38 h -8.38 z m 0,-16.75998 h 8.38 v 8.38 h -8.38 z m 0,-16.76001 h 8.38 v 8.38 h -8.38 z M 123.05,524.62 h 8.38 V 533 h -8.38 z m 0,-25.13999 h 8.38 v 8.38 h -8.38 z m 0,-16.77002 h 8.38 v 8.38 h -8.38 z m 0,-16.75998 h 8.38 v 8.38 h -8.38 z m 0,-16.76001 h 8.38 v 8.38 h -8.38 z m 0,-16.76001 h 8.38 v 8.38 h -8.38 z m 0,-8.38 h 8.38 v 8.38 h -8.38 z m 0,-16.75998 h 8.38 v 8.38 h -8.38 z m 0,-8.39002 h 8.38 v 8.38 h -8.38 z m -8.38,58.67002 h 8.38 v 8.38 h -8.38 z m 0,-8.38001 h 8.38 v 8.38 h -8.38 z m 0,-8.38 h 8.38 v 8.38 h -8.38 z m 0,-8.38001 h 8.38 v 8.38 h -8.38 z M 106.29,524.62 h 8.38 V 533 h -8.38 z m 0,-8.38001 h 8.38 v 8.38 h -8.38 z m 0,-8.38 h 8.38 v 8.38 h -8.38 z m 0,-8.37998 h 8.38 v 8.38 h -8.38 z m 0,-8.38 h 8.38 v 8.38 h -8.38 z m 0,-8.39002 h 8.38 v 8.38 h -8.38 z m 0,-8.38 h 8.38 v 8.38 h -8.38 z m 0,-16.75998 h 8.38 v 8.38 h -8.38 z m 0,-16.76001 h 8.38 v 8.38 h -8.38 z m 0,-16.76001 h 8.38 v 8.38 h -8.38 z m 0,-16.75998 h 8.38 v 8.38 h -8.38 z m 0,-8.39002 h 8.38 v 8.38 h -8.38 z m 0,-8.38 h 8.38 v 8.38 h -8.38 z m 0,-8.37998 h 8.38 v 8.38 h -8.38 z m 0,-8.38 h 8.38 v 8.38 h -8.38 z m 0,-8.38001 h 8.38 v 8.38 h -8.38 z m 0,-8.38 h 8.38 v 8.38 h -8.38 z M 97.900002,524.62 H 106.28 V 533 h -8.379998 z m 0,-50.29001 H 106.28 v 8.38 h -8.379998 z m 0,-41.9 H 106.28 v 8.38 h -8.379998 z m 0,-8.38 H 106.28 v 8.38 h -8.379998 z m 0,-16.75998 H 106.28 v 8.38 h -8.379998 z m 0,-50.29001 H 106.28 v 8.38 h -8.379998 z m -8.380005,167.62 h 8.38 V 533 h -8.38 z m 0,-16.76001 h 8.38 v 8.38 h -8.38 z m 0,-8.37998 h 8.38 v 8.38 h -8.38 z m 0,-8.38 h 8.38 v 8.38 h -8.38 z m 0,-16.77002 h 8.38 v 8.38 h -8.38 z m 0,-16.75998 h 8.38 v 8.38 h -8.38 z m 0,-8.38001 h 8.38 v 8.38 h -8.38 z m 0,-8.38 h 8.38 v 8.38 h -8.38 z m 0,-8.38001 h 8.38 v 8.38 h -8.38 z m 0,-25.13998 h 8.38 v 8.38 h -8.38 z m 0,-16.77002 h 8.38 v 8.38 h -8.38 z m 0,-8.37998 h 8.38 v 8.38 h -8.38 z m 0,-8.38 h 8.38 v 8.38 h -8.38 z m 0,-16.76001 h 8.38 v 8.38 h -8.38 z M 81.139999,524.62 H 89.52 V 533 h -8.380001 z m 0,-16.76001 H 89.52 v 8.38 h -8.380001 z m 0,-8.37998 H 89.52 v 8.38 h -8.380001 z m 0,-8.38 H 89.52 v 8.38 h -8.380001 z m 0,-16.77002 H 89.52 v 8.38 h -8.380001 z m 0,-33.51999 H 89.52 v 8.38 h -8.380001 z m 0,-16.76001 H 89.52 v 8.38 h -8.380001 z m 0,-16.75998 H 89.52 v 8.38 h -8.380001 z m 0,-16.77002 H 89.52 v 8.38 h -8.380001 z m 0,-8.37998 H 89.52 v 8.38 h -8.380001 z m 0,-8.38 H 89.52 v 8.38 h -8.380001 z m 0,-16.76001 H 89.52 v 8.38 h -8.380001 z m -8.379997,167.62 h 8.38 V 533 h -8.38 z m 0,-16.76001 h 8.38 v 8.38 h -8.38 z m 0,-8.37998 h 8.38 v 8.38 h -8.38 z m 0,-8.38 h 8.38 v 8.38 h -8.38 z m 0,-16.77002 h 8.38 v 8.38 h -8.38 z m 0,-16.75998 h 8.38 v 8.38 h -8.38 z m 0,-25.14002 h 8.38 v 8.38 h -8.38 z m 0,-25.13998 h 8.38 v 8.38 h -8.38 z m 0,-16.77002 h 8.38 v 8.38 h -8.38 z m 0,-8.37998 h 8.38 v 8.38 h -8.38 z m 0,-8.38 h 8.38 v 8.38 h -8.38 z m 0,-16.76001 h 8.38 v 8.38 h -8.38 z m -8.380005,167.62 h 8.38 V 533 h -8.38 z m 0,-50.29001 h 8.38 v 8.38 h -8.38 z m 0,-16.75998 h 8.38 v 8.38 h -8.38 z m 0,-8.38001 h 8.38 v 8.38 h -8.38 z m 0,-41.89999 h 8.38 v 8.38 h -8.38 z m 0,-50.29001 h 8.38 v 8.38 h -8.38 z M 56,524.62 h 8.38 V 533 H 56 Z m 0,-8.38001 h 8.38 v 8.38 H 56 Z m 0,-8.38 h 8.38 v 8.38 H 56 Z m 0,-8.37998 h 8.38 v 8.38 H 56 Z m 0,-8.38 h 8.38 v 8.38 H 56 Z m 0,-8.39002 h 8.38 v 8.38 H 56 Z m 0,-8.38 h 8.38 v 8.38 H 56 Z M 56,449.19 h 8.38 v 8.38 H 56 Z m 0,-16.76001 h 8.38 v 8.38 H 56 Z m 0,-8.38 h 8.38 v 8.38 H 56 Z m 0,-16.75998 h 8.38 v 8.38 H 56 Z m 0,-8.39002 h 8.38 v 8.38 H 56 Z m 0,-8.38 h 8.38 v 8.38 H 56 Z m 0,-8.37998 h 8.38 v 8.38 H 56 Z m 0,-8.38 h 8.38 v 8.38 H 56 Z M 56,365.38 h 8.38 v 8.38 H 56 Z M 56,357 h 8.38 v 8.38 H 56 Z M 44,589 H 336.75 A 48.25,48.25 0 0 0 385,540.75 V 326 h 24 l -43,-79 -44,79 h 22 v 207 a 21,21 0 0 1 -21,21 H 59 A 24,24 0 0 1 35,530 v 0 -254.75 A 24.25,24.25 0 0 1 59.25,251 H 126 V 211 H 49.75 A 49.75,49.75 0 0 0 0,260.75 V 545 v 0 a 44,44 0 0 0 44,44 z M 478,0 H 185.25 A 48.25,48.25 0 0 0 137,48.25 V 263 h -24 l 43,79 44,-79 H 178 V 56 a 21,21 0 0 1 21,-21 h 264 a 24,24 0 0 1 24,24 v 0 254.75 A 24.25,24.25 0 0 1 462.75,338 H 396 v 40 h 76.25 A 49.75,49.75 0 0 0 522,328.25 V 44 44 A 44,44 0 0 0 478,0 Z" />
</svg>
