<svg id="Layer_1" data-name="Layer 1" xmlns="http://www.w3.org/2000/svg" xmlns:xlink="http://www.w3.org/1999/xlink" viewBox="0 0 522 589"><defs><style>.cls-1{fill:#fff;}.cls-2{fill:gray;}.cls-3{mask:url(#mask);}</style><mask id="mask" x="49" y="255" width="293" height="302" maskUnits="userSpaceOnUse"><g transform="translate(-254 -202)"><polygon class="cls-1" points="589 460 303 457 305 550 499 552 499 748 596 748 589 460"/><polygon class="cls-2" points="310 547 305 547 305 759 508 759 508 744 310 744 310 547"/><polygon points="358.9 464.44 408.87 558 468.41 457 354 457 358.9 464.44"/></g></mask></defs><title>Black</title><path d="M732,202H439.25A48.25,48.25,0,0,0,391,250.25V465H367l43,79,44-79H432V258a21,21,0,0,1,21-21H717a24,24,0,0,1,24,24h0V515.75A24.25,24.25,0,0,1,716.75,540H650v40h76.25A49.75,49.75,0,0,0,776,530.25V246h0A44,44,0,0,0,732,202Z" transform="translate(-254 -202)"/><path d="M298,791H590.75A48.25,48.25,0,0,0,639,742.75V528h24l-43-79-44,79h22V735a21,21,0,0,1-21,21H313a24,24,0,0,1-24-24h0V477.25A24.25,24.25,0,0,1,313.25,453H380V413H303.75A49.75,49.75,0,0,0,254,462.75V747h0A44,44,0,0,0,298,791Z" transform="translate(-254 -202)"/><rect id="p" x="56" y="357" width="8.38" height="8.38"/><rect id="p-2" data-name="p" x="56" y="365.38" width="8.38" height="8.38"/><rect id="p-3" data-name="p" x="56" y="373.76" width="8.38" height="8.38"/><rect id="p-4" data-name="p" x="56" y="382.14" width="8.38" height="8.38"/><rect id="p-5" data-name="p" x="56" y="390.52" width="8.38" height="8.38"/><rect id="p-6" data-name="p" x="56" y="398.9" width="8.38" height="8.38"/><rect id="p-7" data-name="p" x="56" y="407.29" width="8.38" height="8.38"/><rect id="p-8" data-name="p" x="56" y="424.05" width="8.38" height="8.38"/><rect id="p-9" data-name="p" x="56" y="432.43" width="8.38" height="8.38"/><rect id="p-10" data-name="p" x="56" y="449.19" width="8.38" height="8.38"/><rect id="p-11" data-name="p" x="56" y="474.33" width="8.38" height="8.38"/><rect id="p-12" data-name="p" x="56" y="482.71" width="8.38" height="8.38"/><rect id="p-13" data-name="p" x="56" y="491.1" width="8.38" height="8.38"/><rect id="p-14" data-name="p" x="56" y="499.48" width="8.38" height="8.38"/><rect id="p-15" data-name="p" x="56" y="507.86" width="8.38" height="8.38"/><rect id="p-16" data-name="p" x="56" y="516.24" width="8.38" height="8.38"/><rect id="p-17" data-name="p" x="56" y="524.62" width="8.38" height="8.38"/><rect id="p-18" data-name="p" x="64.38" y="357" width="8.38" height="8.38"/><rect id="p-19" data-name="p" x="64.38" y="407.29" width="8.38" height="8.38"/><rect id="p-20" data-name="p" x="64.38" y="449.19" width="8.38" height="8.38"/><rect id="p-21" data-name="p" x="64.38" y="457.57" width="8.38" height="8.38"/><rect id="p-22" data-name="p" x="64.38" y="474.33" width="8.38" height="8.38"/><rect id="p-23" data-name="p" x="64.38" y="524.62" width="8.38" height="8.38"/><rect id="p-24" data-name="p" x="72.76" y="357" width="8.38" height="8.38"/><rect id="p-25" data-name="p" x="72.76" y="373.76" width="8.38" height="8.38"/><rect id="p-26" data-name="p" x="72.76" y="382.14" width="8.38" height="8.38"/><rect id="p-27" data-name="p" x="72.76" y="390.52" width="8.38" height="8.38"/><rect id="p-28" data-name="p" x="72.76" y="407.29" width="8.38" height="8.38"/><rect id="p-29" data-name="p" x="72.76" y="432.43" width="8.38" height="8.38"/><rect id="p-30" data-name="p" x="72.76" y="457.57" width="8.38" height="8.38"/><rect id="p-31" data-name="p" x="72.76" y="474.33" width="8.38" height="8.38"/><rect id="p-32" data-name="p" x="72.76" y="491.1" width="8.38" height="8.38"/><rect id="p-33" data-name="p" x="72.76" y="499.48" width="8.38" height="8.38"/><rect id="p-34" data-name="p" x="72.76" y="507.86" width="8.38" height="8.38"/><rect id="p-35" data-name="p" x="72.76" y="524.62" width="8.38" height="8.38"/><rect id="p-36" data-name="p" x="81.14" y="357" width="8.38" height="8.38"/><rect id="p-37" data-name="p" x="81.14" y="373.76" width="8.38" height="8.38"/><rect id="p-38" data-name="p" x="81.14" y="382.14" width="8.38" height="8.38"/><rect id="p-39" data-name="p" x="81.14" y="390.52" width="8.38" height="8.38"/><rect id="p-40" data-name="p" x="81.14" y="407.29" width="8.38" height="8.38"/><rect id="p-41" data-name="p" x="81.14" y="424.05" width="8.38" height="8.38"/><rect id="p-42" data-name="p" x="81.14" y="440.81" width="8.38" height="8.38"/><rect id="p-43" data-name="p" x="81.14" y="474.33" width="8.38" height="8.38"/><rect id="p-44" data-name="p" x="81.14" y="491.1" width="8.38" height="8.38"/><rect id="p-45" data-name="p" x="81.14" y="499.48" width="8.38" height="8.38"/><rect id="p-46" data-name="p" x="81.14" y="507.86" width="8.38" height="8.38"/><rect id="p-47" data-name="p" x="81.14" y="524.62" width="8.38" height="8.38"/><rect id="p-48" data-name="p" x="89.52" y="357" width="8.38" height="8.38"/><rect id="p-49" data-name="p" x="89.52" y="373.76" width="8.38" height="8.38"/><rect id="p-50" data-name="p" x="89.52" y="382.14" width="8.38" height="8.38"/><rect id="p-51" data-name="p" x="89.52" y="390.52" width="8.38" height="8.38"/><rect id="p-52" data-name="p" x="89.52" y="407.29" width="8.38" height="8.38"/><rect id="p-53" data-name="p" x="89.52" y="432.43" width="8.38" height="8.38"/><rect id="p-54" data-name="p" x="89.52" y="440.81" width="8.38" height="8.38"/><rect id="p-55" data-name="p" x="89.52" y="449.19" width="8.38" height="8.38"/><rect id="p-56" data-name="p" x="89.52" y="457.57" width="8.38" height="8.38"/><rect id="p-57" data-name="p" x="89.52" y="474.33" width="8.38" height="8.38"/><rect id="p-58" data-name="p" x="89.52" y="491.1" width="8.38" height="8.38"/><rect id="p-59" data-name="p" x="89.52" y="499.48" width="8.38" height="8.38"/><rect id="p-60" data-name="p" x="89.52" y="507.86" width="8.38" height="8.38"/><rect id="p-61" data-name="p" x="89.52" y="524.62" width="8.38" height="8.38"/><rect id="p-62" data-name="p" x="97.9" y="357" width="8.38" height="8.38"/><rect id="p-63" data-name="p" x="97.9" y="407.29" width="8.38" height="8.38"/><rect id="p-64" data-name="p" x="97.9" y="424.05" width="8.38" height="8.38"/><rect id="p-65" data-name="p" x="97.9" y="432.43" width="8.38" height="8.38"/><rect id="p-66" data-name="p" x="97.9" y="474.33" width="8.38" height="8.38"/><rect id="p-67" data-name="p" x="97.9" y="524.62" width="8.38" height="8.38"/><rect id="p-68" data-name="p" x="106.29" y="357" width="8.38" height="8.38"/><rect id="p-69" data-name="p" x="106.29" y="365.38" width="8.38" height="8.38"/><rect id="p-70" data-name="p" x="106.29" y="373.76" width="8.38" height="8.38"/><rect id="p-71" data-name="p" x="106.29" y="382.14" width="8.38" height="8.38"/><rect id="p-72" data-name="p" x="106.29" y="390.52" width="8.38" height="8.38"/><rect id="p-73" data-name="p" x="106.29" y="398.9" width="8.38" height="8.38"/><rect id="p-74" data-name="p" x="106.29" y="407.29" width="8.38" height="8.38"/><rect id="p-75" data-name="p" x="106.29" y="424.05" width="8.38" height="8.38"/><rect id="p-76" data-name="p" x="106.29" y="440.81" width="8.38" height="8.38"/><rect id="p-77" data-name="p" x="106.29" y="457.57" width="8.38" height="8.38"/><rect id="p-78" data-name="p" x="106.29" y="474.33" width="8.38" height="8.38"/><rect id="p-79" data-name="p" x="106.29" y="482.71" width="8.38" height="8.38"/><rect id="p-80" data-name="p" x="106.29" y="491.1" width="8.38" height="8.38"/><rect id="p-81" data-name="p" x="106.29" y="499.48" width="8.38" height="8.38"/><rect id="p-82" data-name="p" x="106.29" y="507.86" width="8.38" height="8.38"/><rect id="p-83" data-name="p" x="106.29" y="516.24" width="8.38" height="8.38"/><rect id="p-84" data-name="p" x="106.29" y="524.62" width="8.38" height="8.38"/><rect id="p-85" data-name="p" x="114.67" y="432.43" width="8.38" height="8.38"/><rect id="p-86" data-name="p" x="114.67" y="440.81" width="8.38" height="8.38"/><rect id="p-87" data-name="p" x="114.67" y="449.19" width="8.38" height="8.38"/><rect id="p-88" data-name="p" x="114.67" y="457.57" width="8.38" height="8.38"/><rect id="p-89" data-name="p" x="123.05" y="398.9" width="8.38" height="8.38"/><rect id="p-90" data-name="p" x="123.05" y="407.29" width="8.38" height="8.38"/><rect id="p-91" data-name="p" x="123.05" y="424.05" width="8.38" height="8.38"/><rect id="p-92" data-name="p" x="123.05" y="432.43" width="8.38" height="8.38"/><rect id="p-93" data-name="p" x="123.05" y="449.19" width="8.38" height="8.38"/><rect id="p-94" data-name="p" x="123.05" y="465.95" width="8.38" height="8.38"/><rect id="p-95" data-name="p" x="123.05" y="482.71" width="8.38" height="8.38"/><rect id="p-96" data-name="p" x="123.05" y="499.48" width="8.38" height="8.38"/><rect id="p-97" data-name="p" x="123.05" y="524.62" width="8.38" height="8.38"/><rect id="p-98" data-name="p" x="131.43" y="365.38" width="8.38" height="8.38"/><rect id="p-99" data-name="p" x="131.43" y="382.14" width="8.38" height="8.38"/><rect id="p-100" data-name="p" x="131.43" y="398.9" width="8.38" height="8.38"/><rect id="p-101" data-name="p" x="131.43" y="415.67" width="8.38" height="8.38"/><rect id="p-102" data-name="p" x="131.43" y="440.81" width="8.38" height="8.38"/><rect id="p-103" data-name="p" x="131.43" y="457.57" width="8.38" height="8.38"/><rect id="p-104" data-name="p" x="131.43" y="465.95" width="8.38" height="8.38"/><rect id="p-105" data-name="p" x="131.43" y="491.1" width="8.38" height="8.38"/><rect id="p-106" data-name="p" x="131.43" y="507.86" width="8.38" height="8.38"/><rect id="p-107" data-name="p" x="131.43" y="516.24" width="8.38" height="8.38"/><rect id="p-108" data-name="p" x="139.81" y="357" width="8.38" height="8.38"/><rect id="p-109" data-name="p" x="139.81" y="382.14" width="8.38" height="8.38"/><rect id="p-110" data-name="p" x="139.81" y="407.29" width="8.38" height="8.38"/><rect id="p-111" data-name="p" x="139.81" y="424.05" width="8.38" height="8.38"/><rect id="p-112" data-name="p" x="139.81" y="432.43" width="8.38" height="8.38"/><rect id="p-113" data-name="p" x="139.81" y="465.95" width="8.38" height="8.38"/><rect id="p-114" data-name="p" x="139.81" y="499.48" width="8.38" height="8.38"/><rect id="p-115" data-name="p" x="139.81" y="507.86" width="8.38" height="8.38"/><rect id="p-116" data-name="p" x="139.81" y="524.62" width="8.38" height="8.38"/><rect id="p-117" data-name="p" x="148.19" y="357" width="8.38" height="8.38"/><rect id="p-118" data-name="p" x="148.19" y="365.38" width="8.38" height="8.38"/><rect id="p-119" data-name="p" x="148.19" y="382.14" width="8.38" height="8.38"/><rect id="p-120" data-name="p" x="148.19" y="398.9" width="8.38" height="8.38"/><rect id="p-121" data-name="p" x="148.19" y="415.67" width="8.38" height="8.38"/><rect id="p-122" data-name="p" x="148.19" y="449.19" width="8.38" height="8.38"/><rect id="p-123" data-name="p" x="148.19" y="465.95" width="8.38" height="8.38"/><rect id="p-124" data-name="p" x="148.19" y="482.71" width="8.38" height="8.38"/><rect id="p-125" data-name="p" x="148.19" y="491.1" width="8.38" height="8.38"/><rect id="p-126" data-name="p" x="148.19" y="499.48" width="8.38" height="8.38"/><rect id="p-127" data-name="p" x="148.19" y="524.62" width="8.38" height="8.38"/><rect id="p-128" data-name="p" x="156.57" y="357" width="8.38" height="8.38"/><rect id="p-129" data-name="p" x="156.57" y="365.38" width="8.38" height="8.38"/><rect id="p-130" data-name="p" x="156.57" y="373.76" width="8.38" height="8.38"/><rect id="p-131" data-name="p" x="156.57" y="390.52" width="8.38" height="8.38"/><rect id="p-132" data-name="p" x="156.57" y="398.9" width="8.38" height="8.38"/><rect id="p-133" data-name="p" x="156.57" y="407.29" width="8.38" height="8.38"/><rect id="p-134" data-name="p" x="156.57" y="415.67" width="8.38" height="8.38"/><rect id="p-135" data-name="p" x="156.57" y="440.81" width="8.38" height="8.38"/><rect id="p-136" data-name="p" x="156.57" y="457.57" width="8.38" height="8.38"/><rect id="p-137" data-name="p" x="156.57" y="482.71" width="8.38" height="8.38"/><rect id="p-138" data-name="p" x="156.57" y="507.86" width="8.38" height="8.38"/><rect id="p-139" data-name="p" x="156.57" y="524.62" width="8.38" height="8.38"/><rect id="p-140" data-name="p" x="164.95" y="424.05" width="8.38" height="8.38"/><rect id="p-141" data-name="p" x="164.95" y="440.81" width="8.38" height="8.38"/><rect id="p-142" data-name="p" x="164.95" y="474.33" width="8.38" height="8.38"/><rect id="p-143" data-name="p" x="164.95" y="482.71" width="8.38" height="8.38"/><rect id="p-144" data-name="p" x="164.95" y="516.24" width="8.38" height="8.38"/><rect id="p-145" data-name="p" x="173.33" y="357" width="8.38" height="8.38"/><rect id="p-146" data-name="p" x="173.33" y="365.38" width="8.38" height="8.38"/><rect id="p-147" data-name="p" x="173.33" y="373.76" width="8.38" height="8.38"/><rect id="p-148" data-name="p" x="173.33" y="382.14" width="8.38" height="8.38"/><rect id="p-149" data-name="p" x="173.33" y="390.52" width="8.38" height="8.38"/><rect id="p-150" data-name="p" x="173.33" y="398.9" width="8.38" height="8.38"/><rect id="p-151" data-name="p" x="173.33" y="407.29" width="8.38" height="8.38"/><rect id="p-152" data-name="p" x="173.33" y="432.43" width="8.38" height="8.38"/><rect id="p-153" data-name="p" x="173.33" y="457.57" width="8.38" height="8.38"/><rect id="p-154" data-name="p" x="173.33" y="491.1" width="8.38" height="8.38"/><rect id="p-155" data-name="p" x="173.33" y="516.24" width="8.38" height="8.38"/><rect id="p-156" data-name="p" x="181.71" y="357" width="8.38" height="8.38"/><rect id="p-157" data-name="p" x="181.71" y="407.29" width="8.38" height="8.38"/><rect id="p-158" data-name="p" x="181.71" y="424.05" width="8.38" height="8.38"/><rect id="p-159" data-name="p" x="181.71" y="432.43" width="8.38" height="8.38"/><rect id="p-160" data-name="p" x="181.71" y="465.95" width="8.38" height="8.38"/><rect id="p-161" data-name="p" x="181.71" y="474.33" width="8.38" height="8.38"/><rect id="p-162" data-name="p" x="181.71" y="482.71" width="8.38" height="8.38"/><rect id="p-163" data-name="p" x="181.71" y="491.1" width="8.38" height="8.38"/><rect id="p-164" data-name="p" x="181.71" y="499.48" width="8.38" height="8.38"/><rect id="p-165" data-name="p" x="181.71" y="507.86" width="8.38" height="8.38"/><rect id="p-166" data-name="p" x="190.1" y="357" width="8.38" height="8.38"/><rect id="p-167" data-name="p" x="190.1" y="373.76" width="8.38" height="8.38"/><rect id="p-168" data-name="p" x="190.1" y="382.14" width="8.38" height="8.38"/><rect id="p-169" data-name="p" x="190.1" y="390.52" width="8.38" height="8.38"/><rect id="p-170" data-name="p" x="190.1" y="407.29" width="8.38" height="8.38"/><rect id="p-171" data-name="p" x="190.1" y="457.57" width="8.38" height="8.38"/><rect id="p-172" data-name="p" x="190.1" y="474.33" width="8.38" height="8.38"/><rect id="p-173" data-name="p" x="190.1" y="499.48" width="8.38" height="8.38"/><rect id="p-174" data-name="p" x="190.1" y="507.86" width="8.38" height="8.38"/><rect id="p-175" data-name="p" x="190.1" y="516.24" width="8.38" height="8.38"/><rect id="p-176" data-name="p" x="198.48" y="357" width="8.38" height="8.38"/><rect id="p-177" data-name="p" x="198.48" y="373.76" width="8.38" height="8.38"/><rect id="p-178" data-name="p" x="198.48" y="382.14" width="8.38" height="8.38"/><rect id="p-179" data-name="p" x="198.48" y="390.52" width="8.38" height="8.38"/><rect id="p-180" data-name="p" x="198.48" y="407.29" width="8.38" height="8.38"/><rect id="p-181" data-name="p" x="198.48" y="440.81" width="8.38" height="8.38"/><rect id="p-182" data-name="p" x="198.48" y="449.19" width="8.38" height="8.38"/><rect id="p-183" data-name="p" x="198.48" y="457.57" width="8.38" height="8.38"/><rect id="p-184" data-name="p" x="198.48" y="465.95" width="8.38" height="8.38"/><rect id="p-185" data-name="p" x="198.48" y="474.33" width="8.38" height="8.38"/><rect id="p-186" data-name="p" x="198.48" y="507.86" width="8.38" height="8.38"/><rect id="p-187" data-name="p" x="198.48" y="524.62" width="8.38" height="8.38"/><rect id="p-188" data-name="p" x="206.86" y="357" width="8.38" height="8.38"/><rect id="p-189" data-name="p" x="206.86" y="373.76" width="8.38" height="8.38"/><rect id="p-190" data-name="p" x="206.86" y="382.14" width="8.38" height="8.38"/><rect id="p-191" data-name="p" x="206.86" y="390.52" width="8.38" height="8.38"/><rect id="p-192" data-name="p" x="206.86" y="407.29" width="8.38" height="8.38"/><rect id="p-193" data-name="p" x="206.86" y="432.43" width="8.38" height="8.38"/><rect id="p-194" data-name="p" x="215.24" y="357" width="8.38" height="8.38"/><rect id="p-195" data-name="p" x="215.24" y="407.29" width="8.38" height="8.38"/><rect id="p-196" data-name="p" x="215.24" y="432.43" width="8.38" height="8.38"/><rect id="p-197" data-name="p" x="215.24" y="449.19" width="8.38" height="8.38"/><rect id="p-198" data-name="p" x="215.24" y="457.57" width="8.38" height="8.38"/><rect id="p-199" data-name="p" x="215.24" y="465.95" width="8.38" height="8.38"/><rect id="p-200" data-name="p" x="215.24" y="474.33" width="8.38" height="8.38"/><rect id="p-201" data-name="p" x="215.24" y="499.48" width="8.38" height="8.38"/><rect id="p-202" data-name="p" x="215.24" y="524.62" width="8.38" height="8.38"/><rect id="p-203" data-name="p" x="223.62" y="357" width="8.38" height="8.38"/><rect id="p-204" data-name="p" x="223.62" y="365.38" width="8.38" height="8.38"/><rect id="p-205" data-name="p" x="223.62" y="373.76" width="8.38" height="8.38"/><rect id="p-206" data-name="p" x="223.62" y="382.14" width="8.38" height="8.38"/><rect id="p-207" data-name="p" x="223.62" y="390.52" width="8.38" height="8.38"/><rect id="p-208" data-name="p" x="223.62" y="398.9" width="8.38" height="8.38"/><rect id="p-209" data-name="p" x="223.62" y="407.29" width="8.38" height="8.38"/><rect id="p-210" data-name="p" x="223.62" y="432.43" width="8.38" height="8.38"/><rect id="p-211" data-name="p" x="223.62" y="440.81" width="8.38" height="8.38"/><rect id="p-212" data-name="p" x="223.62" y="449.19" width="8.38" height="8.38"/><rect id="p-213" data-name="p" x="223.62" y="457.57" width="8.38" height="8.38"/><rect id="p-214" data-name="p" x="223.62" y="465.95" width="8.38" height="8.38"/><rect id="p-215" data-name="p" x="223.62" y="482.71" width="8.38" height="8.38"/><rect id="p-216" data-name="p" x="223.62" y="491.1" width="8.38" height="8.38"/><rect id="p-217" data-name="p" x="223.62" y="499.48" width="8.38" height="8.38"/><rect id="p-218" data-name="p" x="223.62" y="507.86" width="8.38" height="8.38"/><g class="cls-3"><path d="M321.08,463.64c1.3.18,1.46.95,1.52,2.27,0,.13,0,.06,0,.19v26.33c0,.91.26,1.39.76,1.52h6.31a1.35,1.35,0,0,1,1,.4,1.86,1.86,0,0,1,0,3,1.35,1.35,0,0,1-.92.36H311.76a1.33,1.33,0,0,1-1-.41c-.73-.77-1.08-3.38,2-3.38h5.3c.65-.1.89-1.38.76-2.27V469.51a1.32,1.32,0,0,0-1.32-1.32h-4.74c-3.79,0-3-4.55-.31-4.37" transform="translate(-254 -202)"/><path d="M360.39,463.64H344.66a2.05,2.05,0,0,0-2,2v30a2.05,2.05,0,0,0,2,2h15.73a2.05,2.05,0,0,0,2-2v-30A2.05,2.05,0,0,0,360.39,463.64Zm-1.12,28.88a2.05,2.05,0,0,1-2,2h-9.38a2.05,2.05,0,0,1-2-2V468.86a2.05,2.05,0,0,1,2-2h9.38a2.05,2.05,0,0,1,2,2Z" transform="translate(-254 -202)"/><path d="M446.86,463.64c1.3.18,1.46.95,1.52,2.27,0,.13,0,.06,0,.19v26.33c0,.91.26,1.39.76,1.52h6.31a1.35,1.35,0,0,1,1,.4,1.86,1.86,0,0,1,0,3,1.35,1.35,0,0,1-.92.36H437.54a1.33,1.33,0,0,1-1-.41c-.73-.77-1.08-3.38,2-3.38h5.3c.65-.1.89-1.38.76-2.27V469.51a1.32,1.32,0,0,0-1.32-1.32h-4.74c-3.79,0-3-4.55-.31-4.37" transform="translate(-254 -202)"/><path d="M486.17,463.64H470.45a2.05,2.05,0,0,0-2,2v30a2.05,2.05,0,0,0,2,2h15.73a2.05,2.05,0,0,0,2-2v-30A2.05,2.05,0,0,0,486.17,463.64ZM485,492.52a2.05,2.05,0,0,1-2,2h-9.38a2.05,2.05,0,0,1-2-2V468.86a2.05,2.05,0,0,1,2-2H483a2.05,2.05,0,0,1,2,2Z" transform="translate(-254 -202)"/><path d="M576.76,463.64H561a2.05,2.05,0,0,0-2,2v30a2.05,2.05,0,0,0,2,2h15.73a2.05,2.05,0,0,0,2-2v-30A2.05,2.05,0,0,0,576.76,463.64Zm-1.12,28.88a2.05,2.05,0,0,1-2,2H564.2a2.05,2.05,0,0,1-2-2V468.86a2.05,2.05,0,0,1,2-2h9.38a2.05,2.05,0,0,1,2,2Z" transform="translate(-254 -202)"/><path d="M541.58,463.64c1.3.18,1.46.95,1.52,2.27,0,.13,0,.06,0,.19v26.33c0,.91.26,1.39.76,1.52h6.31a1.35,1.35,0,0,1,1,.4,1.86,1.86,0,0,1,0,3,1.35,1.35,0,0,1-.92.36H532.25a1.33,1.33,0,0,1-1-.41c-.73-.77-1.08-3.38,2-3.38h5.3c.65-.1.89-1.38.76-2.27V469.51a1.32,1.32,0,0,0-1.32-1.32h-4.74c-3.79,0-3-4.55-.31-4.37" transform="translate(-254 -202)"/><path d="M511.37,463.64c1.3.18,1.46.95,1.52,2.27,0,.13,0,.06,0,.19v26.33c0,.91.26,1.39.76,1.52H520a1.35,1.35,0,0,1,1,.4,1.86,1.86,0,0,1,0,3,1.35,1.35,0,0,1-.92.36H502a1.33,1.33,0,0,1-1-.41c-.73-.77-1.08-3.38,2-3.38h5.3c.65-.1.89-1.38.76-2.27V469.51a1.32,1.32,0,0,0-1.32-1.32H503c-3.79,0-3-4.55-.31-4.37" transform="translate(-254 -202)"/><path d="M320.32,512.89c1.3.18,1.46.95,1.52,2.27,0,.13,0,.06,0,.19v26.33c0,.91.26,1.39.76,1.52h6.31a1.35,1.35,0,0,1,1,.4,1.86,1.86,0,0,1,0,3,1.35,1.35,0,0,1-.92.36H311a1.33,1.33,0,0,1-1-.41c-.73-.77-1.08-3.38,2-3.38h5.3c.65-.1.89-1.38.76-2.27V518.76a1.32,1.32,0,0,0-1.32-1.32H312c-3.79,0-3-4.55-.31-4.37" transform="translate(-254 -202)"/><path d="M359.63,512.89H343.91a2.05,2.05,0,0,0-2,2v30a2.05,2.05,0,0,0,2,2h15.73a2.05,2.05,0,0,0,2-2v-30A2.05,2.05,0,0,0,359.63,512.89Zm-1.12,28.88a2.05,2.05,0,0,1-2,2h-9.38a2.05,2.05,0,0,1-2-2V518.11a2.05,2.05,0,0,1,2-2h9.38a2.05,2.05,0,0,1,2,2Z" transform="translate(-254 -202)"/><path d="M392.22,512.89H376.49a2.05,2.05,0,0,0-2,2v30a2.05,2.05,0,0,0,2,2h15.73a2.05,2.05,0,0,0,2-2v-30A2.05,2.05,0,0,0,392.22,512.89Zm-1.12,28.88a2.05,2.05,0,0,1-2,2h-9.38a2.05,2.05,0,0,1-2-2V518.11a2.05,2.05,0,0,1,2-2H389a2.05,2.05,0,0,1,2,2Z" transform="translate(-254 -202)"/><path d="M415,512.89c1.3.18,1.46.95,1.52,2.27,0,.13,0,.06,0,.19v26.33c0,.91.26,1.39.76,1.52h6.31a1.35,1.35,0,0,1,1,.4,1.86,1.86,0,0,1,0,3,1.35,1.35,0,0,1-.92.36H405.71a1.33,1.33,0,0,1-1-.41c-.73-.77-1.08-3.38,2-3.38H412c.65-.1.89-1.38.76-2.27V518.76a1.32,1.32,0,0,0-1.32-1.32H406.7c-3.79,0-3-4.55-.31-4.37" transform="translate(-254 -202)"/><path d="M446.11,512.89c1.3.18,1.46.95,1.52,2.27,0,.13,0,.06,0,.19v26.33c0,.91.26,1.39.76,1.52h6.31a1.35,1.35,0,0,1,1,.4,1.86,1.86,0,0,1,0,3,1.35,1.35,0,0,1-.92.36H436.78a1.33,1.33,0,0,1-1-.41c-.73-.77-1.08-3.38,2-3.38h5.3c.65-.1.89-1.38.76-2.27V518.76a1.32,1.32,0,0,0-1.32-1.32h-4.74c-3.79,0-3-4.55-.31-4.37" transform="translate(-254 -202)"/><path d="M485.42,512.89H469.69a2.05,2.05,0,0,0-2,2v30a2.05,2.05,0,0,0,2,2h15.73a2.05,2.05,0,0,0,2-2v-30A2.05,2.05,0,0,0,485.42,512.89Zm-1.12,28.88a2.05,2.05,0,0,1-2,2h-9.38a2.05,2.05,0,0,1-2-2V518.11a2.05,2.05,0,0,1,2-2h9.38a2.05,2.05,0,0,1,2,2Z" transform="translate(-254 -202)"/><path d="M518,512.89H502.27a2.05,2.05,0,0,0-2,2v30a2.05,2.05,0,0,0,2,2H518a2.05,2.05,0,0,0,2-2v-30A2.05,2.05,0,0,0,518,512.89Zm-1.12,28.88a2.05,2.05,0,0,1-2,2h-9.38a2.05,2.05,0,0,1-2-2V518.11a2.05,2.05,0,0,1,2-2h9.38a2.05,2.05,0,0,1,2,2Z" transform="translate(-254 -202)"/><path d="M540.82,512.89c1.3.18,1.46.95,1.52,2.27,0,.13,0,.06,0,.19v26.33c0,.91.26,1.39.76,1.52h6.31a1.35,1.35,0,0,1,1,.4,1.86,1.86,0,0,1,0,3,1.35,1.35,0,0,1-.92.36H531.5a1.33,1.33,0,0,1-1-.41c-.73-.77-1.08-3.38,2-3.38h5.3c.65-.1.89-1.38.76-2.27V518.76a1.32,1.32,0,0,0-1.32-1.32h-4.74c-3.79,0-3-4.55-.31-4.37" transform="translate(-254 -202)"/><path d="M569.62,512.89c1.3.18,1.46.95,1.52,2.27,0,.13,0,.06,0,.19v26.33c0,.91.26,1.39.76,1.52h6.31a1.35,1.35,0,0,1,1,.4,1.86,1.86,0,0,1,0,3,1.35,1.35,0,0,1-.92.36H560.29a1.33,1.33,0,0,1-1-.41c-.73-.77-1.08-3.38,2-3.38h5.3c.65-.1.89-1.38.76-2.27V518.76a1.32,1.32,0,0,0-1.32-1.32h-4.74c-3.79,0-3-4.55-.31-4.37" transform="translate(-254 -202)"/><path d="M324.11,562.15c1.3.18,1.46.95,1.52,2.27,0,.13,0,.06,0,.19v26.33c0,.91.26,1.39.76,1.52h6.31a1.35,1.35,0,0,1,1,.4,1.86,1.86,0,0,1,0,3,1.35,1.35,0,0,1-.92.36H314.79a1.33,1.33,0,0,1-1-.41c-.73-.77-1.08-3.38,2-3.38h5.3c.65-.1.89-1.38.76-2.27V568a1.32,1.32,0,0,0-1.32-1.32h-4.74c-3.79,0-3-4.55-.31-4.37" transform="translate(-254 -202)"/><path d="M363.42,562.15H347.69a2.05,2.05,0,0,0-2,2v30a2.05,2.05,0,0,0,2,2h15.73a2.05,2.05,0,0,0,2-2v-30A2.05,2.05,0,0,0,363.42,562.15ZM362.3,591a2.05,2.05,0,0,1-2,2h-9.38a2.05,2.05,0,0,1-2-2V567.37a2.05,2.05,0,0,1,2-2h9.38a2.05,2.05,0,0,1,2,2Z" transform="translate(-254 -202)"/><path d="M396,562.15H380.28a2.05,2.05,0,0,0-2,2v30a2.05,2.05,0,0,0,2,2H396a2.05,2.05,0,0,0,2-2v-30A2.05,2.05,0,0,0,396,562.15ZM394.88,591a2.05,2.05,0,0,1-2,2h-9.38a2.05,2.05,0,0,1-2-2V567.37a2.05,2.05,0,0,1,2-2h9.38a2.05,2.05,0,0,1,2,2Z" transform="translate(-254 -202)"/><path d="M418.83,562.15c1.3.18,1.46.95,1.52,2.27,0,.13,0,.06,0,.19v26.33c0,.91.26,1.39.76,1.52h6.31a1.35,1.35,0,0,1,1,.4,1.86,1.86,0,0,1,0,3,1.35,1.35,0,0,1-.92.36H409.5a1.33,1.33,0,0,1-1-.41c-.73-.77-1.08-3.38,2-3.38h5.3c.65-.1.89-1.38.76-2.27V568a1.32,1.32,0,0,0-1.32-1.32h-4.74c-3.79,0-3-4.55-.31-4.37" transform="translate(-254 -202)"/><path d="M481.72,562.15c1.3.18,1.46.95,1.52,2.27,0,.13,0,.06,0,.19v26.33c0,.91.26,1.39.76,1.52h6.31a1.35,1.35,0,0,1,1,.4,1.86,1.86,0,0,1,0,3,1.35,1.35,0,0,1-.92.36H472.39a1.33,1.33,0,0,1-1-.41c-.73-.77-1.08-3.38,2-3.38h5.3c.65-.1.89-1.38.76-2.27V568a1.32,1.32,0,0,0-1.32-1.32h-4.74c-3.79,0-3-4.55-.31-4.37" transform="translate(-254 -202)"/><path d="M454.35,562.15H438.62a2.05,2.05,0,0,0-2,2v30a2.05,2.05,0,0,0,2,2h15.73a2.05,2.05,0,0,0,2-2v-30A2.05,2.05,0,0,0,454.35,562.15ZM453.23,591a2.05,2.05,0,0,1-2,2h-9.38a2.05,2.05,0,0,1-2-2V567.37a2.05,2.05,0,0,1,2-2h9.38a2.05,2.05,0,0,1,2,2Z" transform="translate(-254 -202)"/><path d="M548.79,562.15H533.06a2.05,2.05,0,0,0-2,2v30a2.05,2.05,0,0,0,2,2h15.73a2.05,2.05,0,0,0,2-2v-30A2.05,2.05,0,0,0,548.79,562.15ZM547.66,591a2.05,2.05,0,0,1-2,2h-9.38a2.05,2.05,0,0,1-2-2V567.37a2.05,2.05,0,0,1,2-2h9.38a2.05,2.05,0,0,1,2,2Z" transform="translate(-254 -202)"/><path d="M512.61,562.15c1.3.18,1.46.95,1.52,2.27,0,.13,0,.06,0,.19v26.33c0,.91.26,1.39.76,1.52h6.31a1.35,1.35,0,0,1,1,.4,1.86,1.86,0,0,1,0,3,1.35,1.35,0,0,1-.92.36H503.29a1.33,1.33,0,0,1-1-.41c-.73-.77-1.08-3.38,2-3.38h5.3c.65-.1.89-1.38.76-2.27V568a1.32,1.32,0,0,0-1.32-1.32h-4.74c-3.79,0-3-4.55-.31-4.37" transform="translate(-254 -202)"/><path d="M573.4,562.15c1.3.18,1.46.95,1.52,2.27,0,.13,0,.06,0,.19v26.33c0,.91.26,1.39.76,1.52H582a1.35,1.35,0,0,1,1,.4,1.86,1.86,0,0,1,0,3,1.35,1.35,0,0,1-.92.36H564.08a1.33,1.33,0,0,1-1-.41c-.73-.77-1.08-3.38,2-3.38h5.3c.65-.1.89-1.38.76-2.27V568a1.32,1.32,0,0,0-1.32-1.32h-4.74c-3.79,0-3-4.55-.31-4.37" transform="translate(-254 -202)"/><path d="M324.11,611.4c1.3.18,1.46.95,1.52,2.27,0,.13,0,.06,0,.19v26.33c0,.91.26,1.39.76,1.52h6.31a1.35,1.35,0,0,1,1,.4,1.86,1.86,0,0,1,0,3,1.35,1.35,0,0,1-.92.36H314.79a1.33,1.33,0,0,1-1-.41c-.73-.77-1.08-3.38,2-3.38h5.3c.65-.1.89-1.38.76-2.27V617.26a1.32,1.32,0,0,0-1.32-1.32h-4.74c-3.79,0-3-4.55-.31-4.37" transform="translate(-254 -202)"/><path d="M363.42,611.4H347.69a2.05,2.05,0,0,0-2,2v30a2.05,2.05,0,0,0,2,2h15.73a2.05,2.05,0,0,0,2-2v-30A2.05,2.05,0,0,0,363.42,611.4Zm-1.12,28.88a2.05,2.05,0,0,1-2,2h-9.38a2.05,2.05,0,0,1-2-2V616.62a2.05,2.05,0,0,1,2-2h9.38a2.05,2.05,0,0,1,2,2Z" transform="translate(-254 -202)"/><path d="M426.31,611.4H410.59a2.05,2.05,0,0,0-2,2v30a2.05,2.05,0,0,0,2,2h15.73a2.05,2.05,0,0,0,2-2v-30A2.05,2.05,0,0,0,426.31,611.4Zm-1.12,28.88a2.05,2.05,0,0,1-2,2h-9.38a2.05,2.05,0,0,1-2-2V616.62a2.05,2.05,0,0,1,2-2h9.38a2.05,2.05,0,0,1,2,2Z" transform="translate(-254 -202)"/><path d="M392.31,611.4c1.3.18,1.46.95,1.52,2.27,0,.13,0,.06,0,.19v26.33c0,.91.26,1.39.76,1.52h6.31a1.35,1.35,0,0,1,1,.4,1.86,1.86,0,0,1,0,3,1.35,1.35,0,0,1-.92.36H383a1.33,1.33,0,0,1-1-.41c-.73-.77-1.08-3.38,2-3.38h5.3c.65-.1.89-1.38.76-2.27V617.26a1.32,1.32,0,0,0-1.32-1.32H384c-3.79,0-3-4.55-.31-4.37" transform="translate(-254 -202)"/><path d="M449.89,611.4c1.3.18,1.46.95,1.52,2.27,0,.13,0,.06,0,.19v26.33c0,.91.26,1.39.76,1.52h6.31a1.35,1.35,0,0,1,1,.4,1.86,1.86,0,0,1,0,3,1.35,1.35,0,0,1-.92.36H440.57a1.33,1.33,0,0,1-1-.41c-.73-.77-1.08-3.38,2-3.38h5.3c.65-.1.89-1.38.76-2.27V617.26a1.32,1.32,0,0,0-1.32-1.32h-4.74c-3.79,0-3-4.55-.31-4.37" transform="translate(-254 -202)"/><path d="M489.2,611.4H473.48a2.05,2.05,0,0,0-2,2v30a2.05,2.05,0,0,0,2,2H489.2a2.05,2.05,0,0,0,2-2v-30A2.05,2.05,0,0,0,489.2,611.4Zm-1.12,28.88a2.05,2.05,0,0,1-2,2h-9.38a2.05,2.05,0,0,1-2-2V616.62a2.05,2.05,0,0,1,2-2H486a2.05,2.05,0,0,1,2,2Z" transform="translate(-254 -202)"/><path d="M551.79,611.4H536.06a2.05,2.05,0,0,0-2,2v30a2.05,2.05,0,0,0,2,2h15.73a2.05,2.05,0,0,0,2-2v-30A2.05,2.05,0,0,0,551.79,611.4Zm-1.12,28.88a2.05,2.05,0,0,1-2,2h-9.38a2.05,2.05,0,0,1-2-2V616.62a2.05,2.05,0,0,1,2-2h9.38a2.05,2.05,0,0,1,2,2Z" transform="translate(-254 -202)"/><path d="M515.61,611.4c1.3.18,1.46.95,1.52,2.27,0,.13,0,.06,0,.19v26.33c0,.91.26,1.39.76,1.52h6.31a1.35,1.35,0,0,1,1,.4,1.86,1.86,0,0,1,0,3,1.35,1.35,0,0,1-.92.36H506.29a1.33,1.33,0,0,1-1-.41c-.73-.77-1.08-3.38,2-3.38h5.3c.65-.1.89-1.38.76-2.27V617.26a1.32,1.32,0,0,0-1.32-1.32h-4.74c-3.79,0-3-4.55-.31-4.37" transform="translate(-254 -202)"/><path d="M573.4,611.4c1.3.18,1.46.95,1.52,2.27,0,.13,0,.06,0,.19v26.33c0,.91.26,1.39.76,1.52H582a1.35,1.35,0,0,1,1,.4,1.86,1.86,0,0,1,0,3,1.35,1.35,0,0,1-.92.36H564.08a1.33,1.33,0,0,1-1-.41c-.73-.77-1.08-3.38,2-3.38h5.3c.65-.1.89-1.38.76-2.27V617.26a1.32,1.32,0,0,0-1.32-1.32h-4.74c-3.79,0-3-4.55-.31-4.37" transform="translate(-254 -202)"/><path d="M327.9,660.65c1.3.18,1.46.95,1.52,2.27,0,.13,0,.06,0,.19v26.33c0,.91.26,1.39.76,1.52h6.31a1.35,1.35,0,0,1,1,.4,1.86,1.86,0,0,1,0,3,1.35,1.35,0,0,1-.92.36H318.58a1.33,1.33,0,0,1-1-.41c-.73-.77-1.08-3.38,2-3.38h5.3c.65-.1.89-1.38.76-2.27V666.52a1.32,1.32,0,0,0-1.32-1.32h-4.74c-3.79,0-3-4.55-.31-4.37" transform="translate(-254 -202)"/><path d="M367.21,660.65H351.48a2.05,2.05,0,0,0-2,2v30a2.05,2.05,0,0,0,2,2h15.73a2.05,2.05,0,0,0,2-2v-30A2.05,2.05,0,0,0,367.21,660.65Zm-1.12,28.88a2.05,2.05,0,0,1-2,2h-9.38a2.05,2.05,0,0,1-2-2V665.87a2.05,2.05,0,0,1,2-2H364a2.05,2.05,0,0,1,2,2Z" transform="translate(-254 -202)"/><path d="M399.79,660.65H384.07a2.05,2.05,0,0,0-2,2v30a2.05,2.05,0,0,0,2,2h15.73a2.05,2.05,0,0,0,2-2v-30A2.05,2.05,0,0,0,399.79,660.65Zm-1.12,28.88a2.05,2.05,0,0,1-2,2h-9.38a2.05,2.05,0,0,1-2-2V665.87a2.05,2.05,0,0,1,2-2h9.38a2.05,2.05,0,0,1,2,2Z" transform="translate(-254 -202)"/><path d="M516.24,660.65c1.3.18,1.46.95,1.52,2.27,0,.13,0,.06,0,.19v26.33c0,.91.26,1.39.76,1.52h6.31a1.35,1.35,0,0,1,1,.4,1.86,1.86,0,0,1,0,3,1.35,1.35,0,0,1-.92.36H506.91a1.33,1.33,0,0,1-1-.41c-.73-.77-1.08-3.38,2-3.38h5.3c.65-.1.89-1.38.76-2.27V666.52a1.32,1.32,0,0,0-1.32-1.32H507.9c-3.79,0-3-4.55-.31-4.37" transform="translate(-254 -202)"/><path d="M453.68,660.65c1.3.18,1.46.95,1.52,2.27,0,.13,0,.06,0,.19v26.33c0,.91.26,1.39.76,1.52h6.31a1.35,1.35,0,0,1,1,.4,1.86,1.86,0,0,1,0,3,1.35,1.35,0,0,1-.92.36H444.36a1.33,1.33,0,0,1-1-.41c-.73-.77-1.08-3.38,2-3.38h5.3c.65-.1.89-1.38.76-2.27V666.52a1.32,1.32,0,0,0-1.32-1.32h-4.74c-3.79,0-3-4.55-.31-4.37" transform="translate(-254 -202)"/><path d="M427.07,660.65H411.34a2.05,2.05,0,0,0-2,2v30a2.05,2.05,0,0,0,2,2h15.73a2.05,2.05,0,0,0,2-2v-30A2.05,2.05,0,0,0,427.07,660.65Zm-1.12,28.88a2.05,2.05,0,0,1-2,2h-9.38a2.05,2.05,0,0,1-2-2V665.87a2.05,2.05,0,0,1,2-2h9.38a2.05,2.05,0,0,1,2,2Z" transform="translate(-254 -202)"/><path d="M491.48,660.65H475.75a2.05,2.05,0,0,0-2,2v30a2.05,2.05,0,0,0,2,2h15.73a2.05,2.05,0,0,0,2-2v-30A2.05,2.05,0,0,0,491.48,660.65Zm-1.12,28.88a2.05,2.05,0,0,1-2,2h-9.38a2.05,2.05,0,0,1-2-2V665.87a2.05,2.05,0,0,1,2-2h9.38a2.05,2.05,0,0,1,2,2Z" transform="translate(-254 -202)"/><path d="M548.4,660.65c1.3.18,1.46.95,1.52,2.27,0,.13,0,.06,0,.19v26.33c0,.91.26,1.39.76,1.52H557a1.35,1.35,0,0,1,1,.4,1.86,1.86,0,0,1,0,3,1.35,1.35,0,0,1-.92.36H539.07a1.33,1.33,0,0,1-1-.41c-.73-.77-1.08-3.38,2-3.38h5.3c.65-.1.89-1.38.76-2.27V666.52a1.32,1.32,0,0,0-1.32-1.32h-4.74c-3.79,0-3-4.55-.31-4.37" transform="translate(-254 -202)"/><path d="M577.19,660.65c1.3.18,1.46.95,1.52,2.27,0,.13,0,.06,0,.19v26.33c0,.91.26,1.39.76,1.52h6.31a1.35,1.35,0,0,1,1,.4,1.86,1.86,0,0,1,0,3,1.35,1.35,0,0,1-.92.36H567.87a1.33,1.33,0,0,1-1-.41c-.73-.77-1.08-3.38,2-3.38h5.3c.65-.1.89-1.38.76-2.27V666.52a1.32,1.32,0,0,0-1.32-1.32h-4.74c-3.79,0-3-4.55-.31-4.37" transform="translate(-254 -202)"/><path d="M327.9,709.9c1.3.18,1.46.95,1.52,2.27,0,.13,0,.06,0,.19V738.7c0,.91.26,1.39.76,1.52h6.31a1.35,1.35,0,0,1,1,.4,1.86,1.86,0,0,1,0,3,1.35,1.35,0,0,1-.92.36H318.58a1.33,1.33,0,0,1-1-.41c-.73-.77-1.08-3.38,2-3.38h5.3c.65-.1.89-1.38.76-2.27V715.77a1.32,1.32,0,0,0-1.32-1.32h-4.74c-3.79,0-3-4.55-.31-4.37" transform="translate(-254 -202)"/><path d="M367.21,709.9H351.48a2.05,2.05,0,0,0-2,2v30a2.05,2.05,0,0,0,2,2h15.73a2.05,2.05,0,0,0,2-2V712A2.05,2.05,0,0,0,367.21,709.9Zm-1.12,28.88a2.05,2.05,0,0,1-2,2h-9.38a2.05,2.05,0,0,1-2-2V715.12a2.05,2.05,0,0,1,2-2H364a2.05,2.05,0,0,1,2,2Z" transform="translate(-254 -202)"/><path d="M399.79,709.9H384.07a2.05,2.05,0,0,0-2,2v30a2.05,2.05,0,0,0,2,2h15.73a2.05,2.05,0,0,0,2-2V712A2.05,2.05,0,0,0,399.79,709.9Zm-1.12,28.88a2.05,2.05,0,0,1-2,2h-9.38a2.05,2.05,0,0,1-2-2V715.12a2.05,2.05,0,0,1,2-2h9.38a2.05,2.05,0,0,1,2,2Z" transform="translate(-254 -202)"/><path d="M422.62,709.9c1.3.18,1.46.95,1.52,2.27,0,.13,0,.06,0,.19V738.7c0,.91.26,1.39.76,1.52h6.31a1.35,1.35,0,0,1,1,.4,1.86,1.86,0,0,1,0,3,1.35,1.35,0,0,1-.92.36H413.29a1.33,1.33,0,0,1-1-.41c-.73-.77-1.08-3.38,2-3.38h5.3c.65-.1.89-1.38.76-2.27V715.77a1.32,1.32,0,0,0-1.32-1.32h-4.74c-3.79,0-3-4.55-.31-4.37" transform="translate(-254 -202)"/><path d="M453.68,709.9c1.3.18,1.46.95,1.52,2.27,0,.13,0,.06,0,.19V738.7c0,.91.26,1.39.76,1.52h6.31a1.35,1.35,0,0,1,1,.4,1.86,1.86,0,0,1,0,3,1.35,1.35,0,0,1-.92.36H444.36a1.33,1.33,0,0,1-1-.41c-.73-.77-1.08-3.38,2-3.38h5.3c.65-.1.89-1.38.76-2.27V715.77a1.32,1.32,0,0,0-1.32-1.32h-4.74c-3.79,0-3-4.55-.31-4.37" transform="translate(-254 -202)"/><path d="M493,709.9H477.27a2.05,2.05,0,0,0-2,2v30a2.05,2.05,0,0,0,2,2H493a2.05,2.05,0,0,0,2-2V712A2.05,2.05,0,0,0,493,709.9Zm-1.12,28.88a2.05,2.05,0,0,1-2,2h-9.38a2.05,2.05,0,0,1-2-2V715.12a2.05,2.05,0,0,1,2-2h9.38a2.05,2.05,0,0,1,2,2Z" transform="translate(-254 -202)"/><path d="M525.58,709.9H509.85a2.05,2.05,0,0,0-2,2v30a2.05,2.05,0,0,0,2,2h15.73a2.05,2.05,0,0,0,2-2V712A2.05,2.05,0,0,0,525.58,709.9Zm-1.12,28.88a2.05,2.05,0,0,1-2,2H513a2.05,2.05,0,0,1-2-2V715.12a2.05,2.05,0,0,1,2-2h9.38a2.05,2.05,0,0,1,2,2Z" transform="translate(-254 -202)"/><path d="M548.4,709.9c1.3.18,1.46.95,1.52,2.27,0,.13,0,.06,0,.19V738.7c0,.91.26,1.39.76,1.52H557a1.35,1.35,0,0,1,1,.4,1.86,1.86,0,0,1,0,3,1.35,1.35,0,0,1-.92.36H539.07a1.33,1.33,0,0,1-1-.41c-.73-.77-1.08-3.38,2-3.38h5.3c.65-.1.89-1.38.76-2.27V715.77a1.32,1.32,0,0,0-1.32-1.32h-4.74c-3.79,0-3-4.55-.31-4.37" transform="translate(-254 -202)"/><path d="M577.19,709.9c1.3.18,1.46.95,1.52,2.27,0,.13,0,.06,0,.19V738.7c0,.91.26,1.39.76,1.52h6.31a1.35,1.35,0,0,1,1,.4,1.86,1.86,0,0,1,0,3,1.35,1.35,0,0,1-.92.36H567.87a1.33,1.33,0,0,1-1-.41c-.73-.77-1.08-3.38,2-3.38h5.3c.65-.1.89-1.38.76-2.27V715.77a1.32,1.32,0,0,0-1.32-1.32h-4.74c-3.79,0-3-4.55-.31-4.37" transform="translate(-254 -202)"/></g><rect x="196" y="55" width="272" height="16" rx="8" ry="8"/><rect x="196" y="85" width="272" height="16" rx="8" ry="8"/><rect x="196" y="115" width="272" height="16" rx="8" ry="8"/><rect x="196" y="145" width="272" height="16" rx="8" ry="8"/><rect x="196" y="175" width="272" height="16" rx="8" ry="8"/><rect x="196" y="205" width="272" height="16" rx="8" ry="8"/></svg>